<?xml version="1.0" encoding="iso-8859-1"?>
<!--Generator: Adobe Illustrator 16.0.0, SVG Export Plug-In . SVG Version: 6.00 Build 0)-->
<!DOCTYPE svg PUBLIC "-//W3C//DTD SVG 1.1//EN" "http://www.w3.org/Graphics/SVG/1.1/DTD/svg11.dtd">
<svg width="48px" height="48px" fill="#FFFFFF" viewBox="0 0 48 48">
    <path fill="none" d="m0 0h48v48h-48z"/>
    <path d="m7.8 24c0-3.42 2.78-6.2 6.2-6.2h8v-3.8h-8c-5.52 0-10 4.48-10 10s4.48 10 10 10h8v-3.8h-8c-3.42 0-6.2-2.78-6.2-6.2zm8.2 2h16v-4h-16v4zm18-12h-8v3.8h8c3.42 0 6.2 2.78 6.2 6.2s-2.78 6.2-6.2 6.2h-8v3.8h8c5.52 0 10-4.48 10-10s-4.48-10-10-10z"/>
</svg>
